<svg width="27" height="10" viewBox="0 0 27 10" fill="none" xmlns="http://www.w3.org/2000/svg">
<path d="M2.54855 0H24.4514C25.1274 0 25.7756 0.158035 26.2535 0.43934C26.7315 0.720644 27 1.10218 27 1.5C27 1.89782 26.7315 2.27936 26.2535 2.56066C25.7756 2.84197 25.1274 3 24.4514 3H2.54855C1.87263 3 1.2244 2.84197 0.746454 2.56066C0.268507 2.27936 0 1.89782 0 1.5C0 1.10218 0.268507 0.720644 0.746454 0.43934C1.2244 0.158035 1.87263 0 2.54855 0Z" fill="white"/>
<path d="M1.88782 7H18.1122C18.3601 7 18.6056 7.0388 18.8346 7.11418C19.0637 7.18956 19.2718 7.30005 19.4471 7.43934C19.6224 7.57863 19.7614 7.74399 19.8563 7.92597C19.9512 8.10796 20 8.30302 20 8.5C20 8.69698 19.9512 8.89204 19.8563 9.07403C19.7614 9.25601 19.6224 9.42137 19.4471 9.56066C19.2718 9.69995 19.0637 9.81044 18.8346 9.88582C18.6056 9.9612 18.3601 10 18.1122 10H1.88782C1.6399 10 1.39442 9.9612 1.16538 9.88582C0.93634 9.81044 0.728228 9.69995 0.552929 9.56066C0.377629 9.42137 0.238573 9.25601 0.143701 9.07403C0.0488298 8.89204 0 8.69698 0 8.5C0 8.30302 0.0488298 8.10796 0.143701 7.92597C0.238573 7.74399 0.377629 7.57863 0.552929 7.43934C0.728228 7.30005 0.93634 7.18956 1.16538 7.11418C1.39442 7.0388 1.6399 7 1.88782 7Z" fill="white"/>
</svg>
